<mxfile host="51b4c01e-bd55-4768-9857-0d6baefb8618" modified="2020-08-08T02:25:28.639Z" agent="5.0 (Windows NT 10.0; Win64; x64) AppleWebKit/537.36 (KHTML, like Gecko) Code/1.47.3 Chrome/78.0.3904.130 Electron/7.3.2 Safari/537.36" etag="7CP1CUKpYI-_PNH_PNo_" version="13.1.3">
    <diagram id="6hGFLwfOUW9BJ-s0fimq" name="Page-1">
        <mxGraphModel dx="819" dy="792" grid="0" gridSize="10" guides="1" tooltips="1" connect="1" arrows="1" fold="1" page="1" pageScale="1" pageWidth="827" pageHeight="1169" background="#ffffff" math="0" shadow="0">
            <root>
                <mxCell id="0"/>
                <mxCell id="1" parent="0"/>
                <mxCell id="2" value="" style="shape=image;verticalLabelPosition=bottom;labelBackgroundColor=#ffffff;verticalAlign=top;aspect=fixed;imageAspect=0;image=data:image/png,iVBORw0KGgoAAAANSUhEUgAAAPEAAACACAYAAADatY9tAAAgAElEQVR4AeydB3hUx/W33+270q521XvvlSIQvYPpLtjYhrjbiRPHJe2fOPmSOL05TrEdx467MTam2IBNMb0XAZIQEkgg1HsvK6223u+5CxgJI0wRRbCXR+y9U86c85s5d+bOnDkjEQRBwHW5EHAhMGARkA5Yzl2MuxBwIeBEwKXErobgQmCAI+BS4gFegS72XQi4lNjVBlwIDHAEXEo8wCvQxb4LAZcSu9qAC4EBjoBLiQd4BbrYdyHgUmJXG3AhMMARcCnxAK9AF/suBOQuCFwIuBC4ugi0tbVRV9eAxWK5KgW5lPiqwHpzEbW1VZGbmU2JEMGYCSkEqHrK10HR1l3sbfckY/Rg4n3VPSNd90BbWzsrVqyktKzsquDhUuKrAuvNRdTeXkvezs1sF8YSN+pcJTZSumcrn1ZH4R2f4FLiPqr+WEEhZrOZyMhwFAplH6kuL9ilxBeJm6OzhoJD+9idVUx9twy/pDHcNjaNMKGMdbtKkOugqeg4ZY02dLEZzJ0+nBCdktod/+L93ak8+IsphCBgM5ex8d+rODHmPp4dE9BH6d00FR8lN6eKbg8lHU1dGBJGMjHFQNPxHHbuzuJkXTe6sDQmTM4gIUiPgm6qc3aweV8+FUYZwUPS8K+rwZ40hSmpvqjlkh5lCZhrD7Np/U5yq0zg5klE4kgmT07FXwmCtZP6EwfYuiOL4i53fPUyatrM4IEYSVv5Mfbs3kduZSf6CG+6alo5NVBs4fjmPRQ5dKhN5RSYwpgxLZ0ILzdcky8QGRnBggXz8fb26lEXV37rUuKLwdBcT/bG1azeV4smJJJgjypyNyyj2y5nfnQ1G774jDIhkHHD4wkN7CBv62Je6VTws/uH0pS/mmXLHcz8+RRCJOCw1XNoxWq2e02/gBJbaC7N48u3VlEeFUvSoFFMUjmoyd7EqlV7qFGFEOmrouLgepYYbSycN5GAxo18uGQXrV5RxAa503FwJRt2HMd74WDGJvr0UmJBqGH7G//lQ0sqd6XH4WgrIevT96lQ/4gfj/ekuWgvK95fS6k+gZQwFS3FR8jJa8RzNBirj7Bhw+fsr3cnMi4Yec1RCitLaQweChg5uW0Tn+Q3oUmIJWFIPCqZjJ6vj4uB+2ZO4+vrS1BgXy/vy5PcpcQXgVtHRQ7bt+XTGTyVefOnEKeqxff9d9lSWU69rwmjsR5H1HQmzJhOso+NZOE4P1y1mcNTU/C5zI2edouV1i45uuhR3DlnIjGKGtat305ulz9z776XydFSTm54i9c2HiZ3cADVe7ez3xjOYwvvYFKsjtZ9rezadJguq4OvsWAVUAanM3vwXcwb6oW5Loem/b9ma3Y5xmESirN2s6vSk3kP38vsCKjYJ1B15ARNGKnOPcSevE4CZ9/DwmlRCOWedBScIP80jpbOLurtvtw+YTa3j0giQKdyKfFFtLErSeIa5XwjehaayoupNCkJio8lws8djSGcMXc/wiOzhhFmUADepA1JJNRPh9rdi6TBCchb93OkyoLd8Y0F9J3A4E9gwiCSAvXY26ooqbChDxtMcrwvOp03ialJGBydVJQWcPh4Ex5BUUQGeOHmpiUoPZ0hGjd6zUGdLkki82HI9PHEtB9i7fJFvPz2UrZXOrB3mzF1tVNTdAy7eyzJsQY0bgZCIuOIj/YHSyt11dV0y7yJjgrF002DV0wicQFBePaUIiyZtPhoggwqZK4W1hOZq3Lv6om/EVY73SYz3TI5Gq0KpXNsKMcQEoNBzHtSVGIDnh5qFLJTA0elWo1EYqTbcp5e8BvL65FAJkOqUDi/J03tDRhbCzh8oo0/n1iHRizK1EhBURODUn1QdDnQqJTIz2iN1gMfmYyqHuTO3ApdBSx/6Q32uCUzNSOUmIQEWvNyOQ44BDtmiwmZVIVaFA2QyVUolO5gsmOx2ZGIWChOR8qVqGRyejUkpRKZVOrqgc8AfpV/e2F/lcsaoORVaPUa3Ls7aG3ooNMBGqmRwk3r2WEMYnKgCaihobkTi01A1PKGmlLstgRC/RRIe30QCgjGZpovAwmZQo1MGUxU2nhun5WIj9jDCQ4sZiuGUDV5lfmsaG+h0yxOMSmgpZlSmw3recpqzf6Cj/eauPOfdzA1SYek8wRNXy51KrFS6Ya3XyimmioaWiDSEywWE6auNlAloDc4sFvbqWlrw4EGqbkTo9VM93nKcQVdGwRcg51vxFmKX1QaCf5QkLnfOWxtPLqT5Ss3crTejEMmvge72LVmC9nljRjrsli+PBf30VMZEaDCPzAJiSSXg0fasHQ1kLP6czK/scyvJ9AFxRIX4YO9oxW7NpyUlGh0LYfZvOcEVV0BZExMxq34IDtyKmgwNnDw85XktLWdnjW20VR6gmP5NXQJoBAE2h1W1FovvNQ2qg7tYPdJEGwgaL2IHDqMsO4cPt+UT0N7DcezD7I/uwWkBqKSEolyqydn10Hy69qozN5PZnEx9V9n2RVyjRBw9cQXAbTSbxCzF7Rj/WwDH/z+x3TaZPgmjOfecSmEyPY4KWgthSz6y895v8uEImgq339sHKE6BbJJT/Bs5sss+9XTbPb2ICgpiekjOynRXkTBPZLIDTFMmXc7ji/Wse4fz7OkG9y9wxk6fS6JYf4ER97HU82LWbzybzz9oQQvTws2m+T00k4nuUv/xKt7x/H75Y+SMOhufjD3FZb96Xts0/sQGZ/GhCnRrD+xlkX7I3k6bTIL72pl0Zq/8fRKFT5eBnzS0pD7aPGLH8Ndc418+sXn/PlHy5B4hRDgE8GgAHfcFdDag2fXbd8IWOuyWP3xp2zIqaZDqiV17tP84PZYNCVf8v8+KGPoUBXZ67ZTZvUmfso8vnPPCDStx1jz/iIKwr/F/92XhruliWPbv0DicpTXN9A9YwSbifaWFprbTVgFOW4envh4alGXf8ETv3wL98nP8cCYSMR5LqXOG39fD9TiN7Jgw9hYR12LCbv4LelhwN3RiUntQ7D+fNNOYql2zB1tNDZ3I/f2xV976vtTsJvpbGuhubUTsw3kGi2e3p7oNEpkEgGrsZm6pjZMFlCaD/Pf/3uDtntf4s8L4pC2VFBn1BES44sGG53N9dS2dOGQKnDTGdDJumgx2lEa/AjUybB0tdPY2EKnSEutQa2Ug1yNwVOHzGKktbmJti4rgtIdd6UEQa5G76HG3thEk8Qdfx8P3BSugZ5Ym+XlFfzyV78jKCiQZ599iiC3ev73m3+x2208C2amoq39kv++k8/I//cfnnFfzPDvfoZXymyefmQC3u15rPxkI91TfszPJ5pZ+te/cijuJ7z63Gg8zLUcXPlu7/mIno3Wdd8bAYlcg95X/OsdfuZJ5eFDaEQUAW5nQk7/SuRofYPR9srngbmrku2Ld1NxTnLx0d03hOTh44gL7x0pkanQegWgPa+tgASF1psQrfepTE0VuMmltDufZHgERjltNU5FynH3DiL6dNJTYXo8etBVunsS5N5rzvlUMvF/tRafIC0+Z0PO3gUF9yjnbLDr7iwClZmfsSHfi9l/mMqYIYFobD7UHnyBz4srEFJsmC1dJMy4l6kjApB1BeI4uZ/frdtGfvqos0R63LmG0z3AuKxbbQiTb5uJIsoHjexiKUhRqoPIuH0OQ86TRSqTo7xSE2SVP6lz5hAabUDZe3btPCW6gq4dAh1UHS2mPXgU8aEGNAoZckUos59/iQlyHZITW5BKosgYHIhGHMlotIRE+dO97gAn6lxKfHXqyTeNeQsSEXtJccR5sZdEKkej06G52AyXms49llkPhSPIVagUvabIL5WSK32/IuDAZLbjcJM7X/qnakaKxuDdoy0Y0Lmf/RSRysTewYHka1Y7pxg7m7JfGb2FiEnlqNUaVAopkhtJVyQyVBoNapGvW6g6bnxRPQgMV6MsrKC03Yq4Kgn1rP/9D3hqSYHTuk4gl5PlpxYHbTYrVaUlqJTphAeeI53FQpex02WXfg4srkcXAlcZAQlxY+aT5pbFR0v2U9PQSdm6//Li2gpCI4KdL1yH3cLSV98ju6WT5oIvWbSqjth75jDSW0+QRxcth3LIqmij7Og+tmzZ5prYuso15iLvQuBrCEhCbuOXL9r414v/475Zv8XkFse85/7AM8O1kAsSBCLVR/jh7KkYCWTMt37BLxYk4CnpZsKDz1H4l3/w43nL8EoZzKj0e0BcYhoIl6O7WPjiT98XHn/hAyGztOOCLB95baqQPnS48NjS8gum64/I4s9+KNw/I0O475+bhJJmS3+QPEujq1zY+fYLwh1pDwg/eWmnUGE/G3Xmrv3gh8IzC2cKqc+9LewuaRNad74q3DtrspDy80+Fk42mM8mu2W/b/neEb98zXUj98SIhq7JDaNn2D+H2aROElF+tEarbzIIgHBVeGTtRGDzou8KKSsfV5cteJaz7zePCvc9/KByq6BDOA9/VLf809bKycuHBh54Qfvb8r4Sq6poLl5n1LyFt6Gjh34cvnKxn7CVMxXzthXLtAgQLZVtXsfqgQNwDgwkP1IJgx2qxYrM7cAggzugqlArkPWdixTTmbqziLgSJDIVKieJ0vCCI5oNWrHY7giBBKpejkMud6612mxWzRUCmUKBUSE6lszqQKpUoFFIEiwWLzYFU3NztEU5UQhtmH4PTdtpuNWO1i/bGMgS7zckfUjlKpRL56RkIwWHDYrE6N0eIdsgKmYDVJiCTK1CeSXQOuoJDlLebLofgtF1WKuTIpBIkaj1hMbGk6bzRSu10W2w4xDPybBZMZit2QYWs58e6w4rJIto/K1Bgc9pCC8hQiLKdtv1GELDbrVitdictcRJOrpA77bKd39eCA5uInc2OuL9DKpWjEPmRSZ38RMTF0eXjhZvEdpofwGbGZBZ5k+CXmkhqlx9uZ/Y496AncLouFAqcy+wOu7MsB1KkUrCLZYr1LWKlkDvNWgXBjt1q682PUoFMGsSEuWNZ+oeVfLQticC7BhHYY8LoHIhvjEexnZ6W/WIZGhBK7Gg6zJcbD1Psl868xGB8FDaMJ3fy8duL+HRfKS1dUjxTbuPbzz3OzOSzi52dJdt54/ltrD50nE79aB59/kc8PDoQuWChtSKXDR+/z/IdhVSY3IgdPZ2F989jcpiZPcve5i+vFJH24Hf44ZOBHPzv6/xncRmpTz7NUw8nUvb6i7yyvJTUZ3/Bt4ZM5o67BmHzD8Og7iDzrT/y5h4FI+9MpnHXFrbsOUZn5Ey+//wPWDDYA6ndRFPWSl58ZRm7i+2Ej5vJ3PgOlu1tIOWu7/LbGVHnqbtO6o+t53+/focD2Y3okmbw2MN3MyUtEFVAEtNmGhiiDMWjaBm/fH09x2s6oe5VHmuy8MZf7ybVx42vVr/ylvLAH9ciH3cfD1t38P7GbGpUycx77GkemxGLh1zA1FTO/g2f8MHKPZyotmBIGM3t997DnePj8FFBe+khvliymE8251FrkuKTOI4FDy9kzohotIFpzJjtxwhNOJqji/m//2ykvMEEG/7BwkYz7740hUHzF+BjUxHtdDJgw1h1mJXvvM/y3fnUdumImzibB791LxNi3TGWH+Cz/7xNtjSB1AQph9dv40iTmqSZD/GdhdMYEiinrXg/qxYvZvn2AurNosOGiTzw2EJmDg1HnzqO20I28b8Vmzg8KhzvKK/Tm1jOA/ONEOQzmO8+qSOx1xr+hRmT/eY3v/nNhZNc71gH1Yc+59NNe3BPm8WMUan4Cbks+v2rLNrvYNDCBdyf4cbJQ/vYVKhh5Pg4hLyPWZVlpvZ4Caqh0xkX6aDgwAEO7Wkh6vbx+LXm8dHvnuPlvTb8hkxkSqIbFTvWsSmrBGJGESOtoWjfEUzhCaSGKzhyaA/bjxdhiElmcLSe0u272N8YweS7xuFb+l/++q932CekMjrZj7odH7Fqbza79lXgPXwyIwMbyNt/kK3bFUx4cCj6uk384ZG/srFdQ8TYiaR0bmbRZ/up6ZKhSxnPHck9TChs7ZTnZbNnfzZFnaAPjCfB20HFwa3srpEREh1PQOMW/v6v13j9hIYxo0Yy0qeF7MIq2gbN5/cPT2VolDcqsYc8U4012/nDW1tpPJzFMbdBTBrsQVlWJgcO7qM9fDojDHXs/uAv/PStbOTBQ5gwOgJJ8Q5W7zhGkyaCDP8W1n3wDv/Z0Ej09DuZnxGI8cQh1lXKiImOwr92A3966TXeKtMzZewoMjwbyDxWjTH9W/ztkUmkhrWw/OGf8JcvKoidN5s4IYt/P/p9/nfUjN/oucxJEsjZsIGtu4/hPnQS4UIpez5fzJoDxVS1aYgfEoehs5B9uyqxuIWQGtHM2rfe4c0dHSTNupN7hvrQXHiAdTVqkuMiCfPxQ9q6lV1792OLnMTQCC80Z0YAZzC5yr+ij60tW7ej0+kYMWI4Ot0FbG49whg6ZDBhuotn6sbviYVmqgqraK72I8rX79T6WUMdRzq6aNPGEB2RSGryCGIT5mCWKNFJZaetlEB71694+WejkJrH4370AV6vPkhJcRcxzRv4JMeDiMmP85c/zyW8u4YD0Vp+8c88MjcVMnhuEBEprWS2llJcrMIoCHh7GehuaaPxZBEFHa10pqQT5q/HvQ/L/+THf8MfvpWGh3QQlk0/5IPmwxTVOjDs38g6uxtBs37Ma78cj6ZhOqF/fJK/H71ApUl9SZ92P88+cyeJ3Zm89+/XeXdtPvkTy0mIPJtP7hlGXFgA7io5GEJITAhEq/yqDz6bEAkKv3v4w9+fYoisg4mBv+LRVwvJ3LGHEwEOtqw6hn/8DJ76/S+YHtxJ8fYIXvvj/yjav5P9IYNobGnE6O5NUFg8w0eOIy1jGiaTGj9vJZa2s8UovMKJDPdHI/LgGUZyYiBu8pNnEwBN2z7mw1ol/vf8nDd/NhaduZlJ4X/k4deKWL3uABlzTiXXx6Rx5w9e4MnhdrKXamj/81ZaGqqprtTT2NpEp3swwWEJZAwbQ/KI6ZjNbvh7KrEiJzA0AbWmgD0F5Tw2IQIvdf/6uOol0HV4uPHXiW3tNNV00tGux+CuQSPiH5TEbfExJAo5LHrhe8y//xleXLmbUosHHirZV+tmiVEhOKtL4o5SHLqJVsk2K81VJTS5q1EnxxAuIqBxxysgmHhLBx3NtdjUYYSGJ9DU0sSRE7m0qz0ZnJGAm6SV/MICmtqNpEaF4e/Z9+syNiTg1N5epZYzthbiee6VpZnI5XKiU2PwkUpRa7yITUi8cNW7+eMXFEKAHmS+AUR6+eJPE80dHXRezh5AiQTpsAQS3E59WwbGpRLRbcVypIKyxnpKW3To3GKJDAIk7nj4+RIYbaG5o4U2mQ9JCamkmItY/++fsvCBH/K79zdzrAvnd//pXcYXlqdHbGVZJjKZjJSkGPRSkCpUeEYlEWc0Y86tov60gYNOoyHYx0tkGKlc9dXngdo/nJT4FBJNR1n19x9z/4M/4k+Lt3OiW4parnAuv3gY/JArlNRWNGC02L7u6aQHP1f9VhDEyeR+/bvxe2JzN0arhW6UzskicXLDYfFm9GOPok7MJOtQDrmlddTuXcofNx7DsuSvJPVh2SJWkEQiQa5UIRcnxDq7MQMq5+SJhW6pDJlcicbbh7CgcLwOnaQwX0VwcAJpSTIKDpVTmF9HfZcvw4IDMGildF1irSukSgTRYZ7Vjt25Cd+BxfINmigRJ5DsOMRZJLuA1SFgl6mdk1FnfABcIhtgl4ikxE3JOBxWJDIJMk81WrkUldxOh8NEt7g1WS1OANqwdEuRqxXI3AIZNnMebgFR7NqbzbHSMiqy1/DKoSq6Xvgec/t+r52XRaVKiyCYaOvqduIhEye5urvolkuR6ZUoLlCXIkGHKpDRd9yDLiSG3fuyOVZWTuWBVfzjQDXmPz3F/LGR6JQyZ73T3kWnWO+io4PzcnN1A9vb2zl+oojmlpZ+LejGV2KlBje1CpW0A5vd5mzI1uosPl+7nxOSROY8/DMe1Vax6ne/5a1DRdQ02Ei4gEsc8U3vGz2YeOlRWvftZccUbxIctRw5fIwivTcjY6IJ8jagCvEn3LaBXTlK3ALGEBcbQu2hPPbmVWALnUxEiDd6hbiT+OIviURKUPJ49LZtFO7dSU6GHI/mYxzMF4eY5+x26Em2o4ayY7kcLgwm3pRHdnkVjQERhAX7YFCK/jjOc3V10d5lxualQt5zdlpMKs4+H9zDtqJY0uUdHN2TyUl3DemjUogJMJIa7WBN00H27R2LPspM8eF8TpR7EjgxAn97KTvWbyTHFMGIu5/mQe9qvnz5bRZtbaKtrZPuvmy+uzqd/Pido+RhKdPxla+gYPcOMjPkhNrrydqXRZmHnrEZsfhJm84j3Nmgrqo8tmRuJc8Wy5j7n+MRfTmr//4mH+1poKW1C4sVujtN2O12VAGeGBRnR2pnqVz9O41GQ87hI86//i5tACixJ4EhnngaimlsacNoEvDRuWGuLSd7916KivMYbKgnp0yGd/wchkVpkB+5AExyDZ5Rk3hozk7e2P4l/3ghnyi9meryZmLGTuW2KUl4SzTIQ0IIDVNhrtCjNQQQEO5NoIcUocWEblQEYf5eqL+aLbpAeT2jJFJ8ht/Og8lHWZLzPn/4/VFiNLXknlTy1TdAr/QS5zKWyt1OVeFuPnmrCGVzJWW1XSTdNpTBcQG41/bMAHJ3HXo3JfKC/Xy+Ixb/u4YQ4KY4O7HlTC66zs3k3X92sU/dRF52LdFJ6dw1fjAB/i1MWTCNzPf2sfKfv+dAiBpjTTXG+PHcNWk0KQEdbGxvZP+6TI7m5ZIQYOVEWQuKtDEkRvnjcY4rEbm7BwZxq2T+Hj7bEc3jd4gjkbOXbvidPDU+h/dyl/DLF7IYpG/hcGEXQ9Inc9/kZNQdO84mPs+dSqWgq7WefRsPUpCfQ7xPF0erjWgGTyQp0hd3hUBzQzlWi524iEB0qnOxOA/Rfg5SqVRMmDCWhIS4fqZ8ityNr8QYiEyNISR8D0VVNTS1W4kISmfhkzL8ojaxO7eK4ioFUVPuZuLcWYwO0FATNoxRozqJCjjVLUgkagKTRjJCpydEJ0FtCGPKd36Ld/QaNh0qoc4cwKQH72XiuHGkhZzakqALiCdl1BzGSOwMSQzDy8+T1JR0pjZqMGQkEOZ9as+hxi+BQel2BHHWU6HAO2oQw0cEEO2tcq5rgjvhI0cwxhqJn1qCQpfKgl8/i3T5VvKr7HhHj2eOt5W399rP+q06U9UyN3xiBjHhdh/U/jpktjKOlbgxdtJoZk0dQXKQBmtXIIlpQ7Hqg/HUyHH3GcncqbVo86upqmzBeNrbZa/3jfhJkTibhaPayczuJnnWg0y4fRpTo+VIpb4kzfg2v/WPYe22bMoa7IRMm8q4CWMZneSPWuLgtnsfw8t3I1uySqhqkBM8dDbfmj6NUclByEuCSR40DJlfEDqVDG38aO6YVoehsI7Ssha67BGEZQxntCkUf7UEqTKCO379J/zXfMHm7OPU22O4/bFRTJ0ylmR/CW12LyLTRmJUxOHrhFyBzj+MlNFDkUX74xk6iDkLFPj6b2ZbThmVjXIiMm5n8oxpjIz3Q4OR8uMlmByBjE0MOTXpdwbfa/Tr7+/HwgX3XrXSBoZTgNYClr72Cm8VhfLk9x9m7tDAG3utr8/qErA3HWfHvjIsSg+CI/yQtZez4+N/8EFhIPf+/K88N9rpfq9PClcckfMKqY98iGr0r/n8tdmca1N/xfRvMAKOtmxe+9Hf2Ky5jZ///B6GButuOlvjAdATi84k4xg3bQSHj+3l8JFihsX7Eq4dGKz3atOCgM1Yxdbl75FZbcM3Jhy90E59tZ709HGMi73KCiwyo9QTFRWJ0s/9pmvMvbAWHwQT1Xt3sd+iZ9zdI4n1vjllHiCaICVw0DRuv8PBIdGisNsGA1GJJVKUoRN47nk563fmcLKsFbt7GOm3DSJj2HCSe3n/+FqT7J8A/wyefioEqUcs58wx9Q/9G4pKN00mN4ZOv5dZw8PRq2/8FdXLgW9gDKcvRzJXHhcCtwgCN+er6RapPJeYLgREBPp9OG2szObAwROUtVtR6vyJHzyCwZG6s4vrgpWOhhIKC1vwTRtBuP5mrAgrtTk7yZYnMjUx4OzuoDOiik7f25tpNavx9NOKrt77vCytVRSV1mLzjCYx3HAqrb2TuuJCjhwrobbNisorjOQhKUT7e6C6HlYMOOhub8dok6PVuTm9ifQp0MVGCDZMLZXkZ+Vxoq4dh9KLsPhkUhNCMXzNalKgu7mSoqNHKaxoplPiRlBM6qlVBXf5OctrPRmwUn1wC1nqocxJ6eNbRrBjaq0m/+BhCmu7UPiEkzwomcQg7XlXBXtSv1b3/boBwl59gDffeIfdFRKkYkM7to/tuQ0YYlMJ18tOnVjQVsGhtR/y4bqj6IdMIa4Ph4rXCoB+L0dw0FmTxScvv8oHHQncPTQIZS+zKtG1bCU7P/qIDTlyYkaG0Zc5vKO7jaK9a/nws700aKMZHOuNAgt1R7azcsVGssrbsHS3UpSdxZFKAb+IIHw8zpok9rtsfRB0tJeyZ906Pi804xfkj+9pF7t9JL+IYAem1jL2rFjMit1lmAQrTaWFZB8uxaQNITJU32t1wtpUxM51X7DhQAnNJjMdlcfIzD5OuyaQ8EAv3M7YvfYsWbBjrMpk0Yv/5gNbOg8NP99JhQLmjmoOfvERS7aWYLSaqCnK42hlN54RUQRqr8sbs6cUzvt+7YnrMt9hUaY7z/39Me6KVtGct4zf/WIJi4bOZIyfByf3fMSa/TUcy9xFqToRc89V/6+xNgADGo+wZN1Bygv2symzgrpAh2gc1ety2Iwc+/Jt3li8nRaDD3OeG8vXmo+tg+qCHLZt2MuhvCwO1PswfaztFB1LA/m7dpDf4MH4bz3AtAQVZV++zV+W7eZAutgb69D3a632Yv/rD1bRgdfgZkYAACAASURBVPk6ln20ir1h80kfOZgk/yt0/+cw01aRw7aNR9De8Qu+MycKR/FuFr+7ii1bchiWHkrsV0VYqD+6m42HStGOmM9D01PxaD/MklffYNOOLFLjQvAMde/da9Zn897nh6gr2sf67Foak74uljPE3k3LiX2sXpeD+6yf8d0ZwTQfXMmiT79kbWASMXfHoeu1AN8Hnasc3I/fxKKBvBtDxs9iaoo3bhp3/JIGk+xmo7RZ9H4sRabUYvAOJDxCtKy/CS/RaZ6bO76xcUSJG7vPFVFw0HRkLe+urUb+Nc3tkVgidW56d/PyJSg0EL+enxzdXdjcfYgbOYJBccHo9b7EJohO6620Gc1YLmBy2qOE/rkVuqnJ287GnAJaO6Wc63L7sgsRHTVYrLgnDmf86FT89Tp8g8OJDtGfGrafOtH8NHkzRosSr6h0Rg2JI8TTHX14HCmhBsytzbSZzL0sxJyZpAo0bu74xScSdYGD3xzmTmoLsik0RzN2QhpB3j5EJg0hOcDOyZyjVH+Dyftly3+JGftRiSUEjn6M789Pw9Nhp7urlcoDmeR0eZMe5Y9MrSN67IM8+sA8Zo2KuEQ2Ly55XV09y5Z/RnV1jXOXiJjLbDbzydIVHD9+4isiRqORNWvWc/jwhewzv0p+8Tdeidx59708+sgchrqrvzbhYG85wqr3tmId/i1mXWjjksydgISR3PnIQuZNG0pUz+VjlR8pk+YwfUIa/io7prZK8g4X0Kr0IthXh+acXri+vsGJSWVl9VeYiF5FPlm2gsLCs3bXTkzWrifncO5Fy9tde4zN24/SGZTEkNgwer5rLprI+RLKVBgiRjB34V2k+YKls4Wq0mMUVnViCAnG96teWMysIiB5HHfOmMDgYJ3z+7ervIDs0iY0Xr54uqt798JiFp8U7luwgEcfmUWaou9D0G2WbuorihCUUYT6iqoiQe3ugbePO+2tJ6nrse3yfGJcq7BzqvxKilXgHZ2M0yFBxT7+s3ovxXu2c9xrCPdHn/W2cSUlfFPeysoqPl6yzHlcRkCAv3PnSlt7Ox8vWYpKpSQuLtZJoqPDyOdfrGPUyAwGDUr9JrL9E++oY9c7b7BLO4kfzk2h6b3LJKvSE+ScDTRTnbOD3bu2sWl7PubwuUSI5yOf81qurq5mySfLCPD3JygowIlJR0cHH3+8zOmOKD7+lD1vh9HIF2vWkzE8ncGD0r6ZOWMFmRu2U9gVyrjpQzGVFrK9vw5iEntKnwiSfex0NpSwb/0qNmXmkddgYNzMULx7zQQq0QeEohdHNt3NnNi1gy/X7SBPksrMycOI8tZcYGLrwmKKbpTMna1Ipe6oT5+4I5MpUKqkWG3tzuNyLkzh2sT2oxL3YFjrR3LKYEL9DCg2bWPDkl2k/XQ8gec0sB45+uU2LCyEJ7/9GFGREae2nolHori7890nnyD+tAKLBen1HixceC/+fn79Uu43E7FRseVd/psTwPwXZpLsZefCZv3fTFHcTOc8iiVtHEqNni2HjrArazBRPqnOs5TOUAgJCeY7336M6OjIrzARd9R898nHv3qpiWn1Hh4suH8+/n59zNKeISj+OjooPrCZXSe7iZkwmoxoN/ZdlW9DCXKNB0HxQxij8cUj5whlh3aTlRjCmPCe51g5MFYcZtPajew73oZ72AjmjR3N8KRADJe8S+WsoFKZEjeDP3Z7K0bxBFsN2KwWTJ121EofdL1GBGfzXeu7flTiOva8s4pDUbfxzMQoJk6Iwm5uRl++iV9t3E/50+MR/dtdzcvX15fp06f2KsLdzY0Z06f1CnNzc2P8uDG9wq7uQxfHtmzgWFUoW976G/vsFhoKLbQ2beB/f2vnzgeeYdxFThOY6wvYtbcQa1AqGYMTGBqawKDBvjQd/AdrcouZOSaewB6ty8fHh+m39cbEzU1zZZhYmijOL+TIoZMca2whf6ONmiPHabDUsuifcpTPzCYjwZe+diV+E9YOcwdl2dvYXq5nwpzxxGRMInpQHT6OWl77LJeDVTMZE372ZWOuzmHd8pXsqDcwfOo8xqbHE+Kt5bxOTb6p8B7xcqWagLBoFLtPUFprZ3CkFFNnC42NHXh4RxNw2tFEjyzX5bYflViLrH0vy97sZEj0E6R7yeiqPsy+w0ZUSbEE93xxXhdRr2ehalLu/TUvTTk1Ve0wGznauZeTphiGjR1B+CXYP8oVDloK97PrUBMKrY4RYSqa8nIpaLITNMQPrabXWPPqCC33IWX6Qp5ObETsoKCZ7KYGaoyhDBqVSITPldkoSyQCDnMtWas20e4VxkOjfLHXlXG8oBSLRzjhfj17gw5KD+1hX7GVqKmTmDoiDk+VFHu3CZNUhrhVUdrTA+olICJRueEbP4hExQdsXrOHIfdG0Zi1hwNVKmLmJxP0tfXqSyDej0n7UYndSbn7CR5t+5wP//w8H9ilCAoFhoT7+cX8CQReg7bVj7j0MyklQYMncqaztXW1IM96iTWVUQwdnUHYJZQm00cw9rYJtK3bwcqXf8dSBwgyNwIm3MM901IIvhY25XItAbGpBJyaYgCqsG3fxc6WSNJGJhLmc2Xz1BKFO0HJE7hzSgNffPoSP1sGgkSBNiCJuQ9NZ3xoj3FsdyOlRRWU5B2lqKmZo2uVZ7+Bw8bz7QenMSTM8LVJxouCXKrCM3ok8x+oZsnqd3ghR41c5Ub4pPu4e3TQpe8nv6hCLz1R/9pOC1baa8oprWnGZAOJ0g3vwHDC/M/6mcJuoaOpgqJ6G8HR8fj1qI9LZ/9GzdFFVc5xqg2RDA3zcPqH7smpYLfSWnGE0rZA4gcFXmBpRjR6qKeqrg25Vwihvu7OZSvB2klzXQ3V9W10WQVkGg/8goII8HRHecZ3dM8Cr/q9mabicqps7oSE+uF17hT55ZTvsGFqq6Oysp6WLjvIVXj4BBAc6I1O2WNyxd5FY2UVlbWtTldLvYpy9ycmMgAv9x6K3StBJxUHC6j2i2NEX+4lBQfWrmaqyiqoN9qRu+nxDw4l0KB2+rzuRe46PfSvEl8nIVzFuhC4lRHo8Uq7lWFwye5CYOAi4FLigVt3Ls5dCDgR6JeJrQ8XL2HvvkxsttP2vS5wLxkBh8OBxWxxruWqzlgWXDKVgZlB9MNs6jI5Zde4DZxJEnEN/o65s0lLS7muwPeLEre2tjnXItPThzgP1bquEg3Qwo0dRg4ezMJmtzN16qQBKsXlsW2z2li3fiNarTuTJo2/PCIXyCW+HP/31rvMu+t2pzXfBZJedFRVVTW5uXl0d19/A+p+UWJRcvF8GdHaRzzdwHVdOgLtGg0eeg9sNrvTRPLSKQzcHFarFQ8PnfOsItE8tL+v7m6z83QKb2/vfsO229TtpNnfvF4Ovf79Jj7XSfnlcHQL5xEtF6+K9eItjGlP0W9WbPtXiXsi5rp3IeBC4Jog4FLiawKzqxAXAlcPAZcSXz1sXZRdCFwTBFxKfE1gdhXiQuDqIeBS4quHrYvyjYTAOb7ObiTWrpQXlxJfKYKu/C4ErjMCLiW+zhXgKt6FwJUi4FLiK0XQld+FwHVGwKXE17kCXMW7ELhSBFxKfKUIuvK7ELjOCLiU+DpXgKt4FwJXioBLia8UQVd+FwLXGQGXEl/nCnAVf20QEBD/3ZyXS4lvznp1SXULIeBS4luosl2i3pwIuJT45qxXl1S3EAIuJb6FKtsl6s2JgEuJb856dUl1CyHgUuJbqLJdot6cCLiU+OasV5dUtxACLiW+hSr7Rhf1ZnVkd7Vxdynx1UbYRd+FwFVGwKXEVxlgF3kXAlcbAZcSX22EXfQvHgHXePriseqR0qXEPcBw3boQGIgIuJR4INaai2cXAj0Q6NeDk06eLEbqOsqlB7wXf2s0dlJTW4fd7uDEiaKLz3gTpBTPn2poaKSrq+uqyG6xWJ1nhImHoFnM5n5BrKm5uV/o9AeRflPinMO5HDmS3x889QuNPXv2odVpSUu9vsdOXqwwdoedTmOnc7uceELg5V7FxSXU1dUTEOhPaEjIgDjgTjzWtfD4cZRKFR0dxguK3tLSwsniEjw9PYmOirxg2jORDsGBeGjbvn2Z/YaHeHqlQi4Dos8Uc91++0WJ77n7TidI102K8xS86MOPiI2J4a47554n9uYN+t+b7zjPio6Pj2XG9GnO0ypvdGnFfb5ms/nU2cxK5QXZPXQo2ymf+IK63nUrk8mcpzlekOFrENkvShwQ0P/HUV6p7BKJFJVKRWhoyJWSGlD5tVqd85NGp9MRHByEXu8xoPj/JmbLyytQyOXOl9OtVrd9YeOa2OoLGVe4C4EBgoBLiQdIRbnYdCHQFwL9Mpzui/gNH25upfjAJlYclDP7iTtJ0gKCjdbyHDYu+4hVO07Spgtn+PQ7uW/GaOL91De8SN/MYCf7X/slHwV8j3/Pizud3E53cxGb3n2Hd3ceR/CKZ/o9j3HvjDg8Xa/5b4b0Oqe4dZXYbqa5+CCrP/iQ/Y6ZjLOdqglTVQ5fvP8hm9pSeOB338G/ahdLln3EO0YH335oKjGiog/Uy26lNvM9/vl+JqUPPXFaCgFLRz2733+R1w9F8sjzv8G3ZAOLP/wX7Yqf88NpoQyYRuLoouzgBlYsXc3WI9VYPBKY8q1HeXhqMv7ay5DC3klN9qf8/icfktejzqUqT6JGzObBh29nUrS+R8y5t9Vs/MMrvNc9iKe/M4dRYVen8VyGZOcyOtCeHRjr81ny62d5M8eG1aImbPAZT4gWmmrLKKw3ETx6GKPT4tFGQXneUb4sL6aysZsY7QDtjfPfZfLTH9HZ1UW32Y7ScbreBAvG6l2sWddMynO/5c6MQKwRCpqKX2bZ6u3kj3mAQW4DoY7tVO9bxitv70eVcT9/+F4s3Xs+4F9vv4hF+kuevC0B30utOkHAbu3GoTIw9akX+M4wb3BYaCrOZMWSFbz3pgXdTx5nmE9f+DiwGI20dXdjtV89X5u34GBJitY3hcde3cC21e/xlweSe9SAEr2nL8HuFqqPFVDcaKSlrJjc0m7kfiEEeF1qK+hB+nrfJj3MlxvWsmvXf1jYkxebDVNJEQelatJig5FLpWh0BoIifOhqy6G8pmfiG/jeUUPBjqOYfIYybdoo0qIiyLj3HuYGSsg7XEhje/dlMy+VK9F6BRMQ7E9AaChJwzKYPCIOaUMpmRsW8+LTj/OL13ZRZReLsFO86R88++2neGT8//Hal5mUb3+dZ3/9NhsLG7Gaa9n27m+4e8oUhg27jYW/XsHxDgtn3qmXw+QtqMSARIJUrkChkCOT9ra610UNY/a86YScfIOHbpvKpAd/ww4imXbbGBIG8mqNRIpCcUrmnpXusNtprqlHJk/F3/t0E1Ko0Hv6ENxtpq6543La1bXPY5WhHz6asZPSCTeonWvOEqn0lAWhIPaCV94TCoKA4LDSUV/F0ZNtSIJSmDAylaAQNZVV+ZQ1ALYaTh6up0OfwsK3fslT0zMIm/BdXv7d40yLtbH9rz/lT19YmP/Ht1m96AdEZP2Xn71xgFaz8w1wWbjdgsPpC+FkpSZ7A++9tpSq6O/w7ovTCW3aw9tvfsjixcsxPPkg4yIubIxwIeo3apzEaSp7biM/9YkhofdL7kaVAVUg6VPuIF1kUHBgt3RQ8PmnrKqykTQrHm8PzWWz3lF1nA9+MIvFZ174goB33EgWPDWRmHA53eHR7NtWR3FlI6PspeTWdmKIjCYiQM+JHqUKJ3fzcW4Hwx94iCmDIvDVRPC9Jzex8F97KXhiGCNVMnq+YHtkveDtTaHEdrsd8S0pWtCcapAXlLnvSFsLtSXF1AhxjLnjNtKDvSB4HHMmHKVkSzmFlfWMjAhB0TeFARcjlcnwDPRDsOVS2yiAtwQsZlqbG6nWaPD3vjqTMVcHKAGHzUJbeRarF73L8kwLQx/8AU9MieVKFha0gVHc94M/88xI8ePXganxBFs/eZclr71INz/hnoRQAvZt5+SxMvItRdRL/IlPjCXIg15KXFNRSIcpmdF+ChzWDjpsYAiIQ2oWP90cjBDnyC7jnXlTKPGRvHzKysoZOSIDT08Dym8w3eu7AUkRG7XDbqHD2IXV7olMsGKx2kAqQyG7nPdk36XdEDFyBW4RsaQL+zhcUMH8mBBs7c1UljShMYwnPOCG4PKimHCYmzmybjFvLNmDKXoKz7x0F2NjfXATTZyv4JJI5ajcvNDqT73QtPpUxkybwLHS9ZQW1SCdE0eYfzYHyvazp6Yeh1sgsRF+aGntVWp3Wy0OazZvPp/JBwrpWX2VCzQ22xGibmElzs3NZ9nyT/n0s9XMmjmdSRPHO3vmXghezIPci5DEFFICD5L75Zds0Y0loD2PzZml6MOmMTgq4KbqhZ2QSBS4BY5k0oQlvLX0Az73n4t3yWbWHJUT9+BoEgfEzLQ4hDZTtmMpb686QcDtP+GxuUMIche7NQcOQfw2vpgG0EcaAQTBjrhRQ7wEu4nOjg6MdgUaNxVK7wCSwr3IXbuNDV3+DJk2jkg/UeFbe/WsWt8oNGodj7/wbeZnhKGXOehubaCmXYZfsDvyy+wjboqe+KEHFzBp4lhWr17Log8/ZsvW7c4NGeLOFbPZgkrVx3esVIGbpy9B/gbUTgCleMeN4f5vq9Ev/YxFf11PlyKIxInzeXDOGNL8LxPlPtrG9QlW4hkeRpjnGUwkqDwCmPzk7zG//SZL/vRHJF6RjF/4XR6YETFw1ohNpRzcfRSTLpJEfwXtpcdpPwOwPojIAA80ysvTZLvVRGP5MQryPZ2zz131hexYt4cSbTwLk0PRSXREJIWi2/I5J9uimRwfhVOHkeOmV6Jsa6a+voX0hElMTHiVHZ9vJlg+kih1OweWvcpS0938/XdziVMozvbOZ3i/iN+bQolFOUNDQ/n+959k+vSprFq9hszMg5SVl7N5y1bShw457zBbrg9i1MO/YFRPoCRqfOLH8OCvxvBgz/Cb5j6OJ1Yt5YypxymxZLh5J3D3T1/i7p8OUEGNnbRptTTlHeTj/x7sLcSYR/nzA+OIv9SFYnFG380Lb72SgpWv8suVp8hKlVpCUiby9Lw5jEvQOQO9g2IIDEkk0juShKgATg28fUmYNIzBH29myafbCPruXL7146fwWrKcT1/eSotZReSI+fzhB7OIdbs8BRYLv2mU+EytxcRE8+MfPcsnS1egVCj5z2v/IzkpkWlTJ5GamoK3t5dzqeVMetfvTYKA31Ce+MnQc15OVyibzA3/QXfzp+V3X4CQuOzkwNxtxkEAaVGxRPmfmQmXEThiAb8esaBHfk/uem4Id/UIudLba6LEDpuJ+pLj1PS131utxSsghHBP1ZXK0yt/WFgoT3//Sb5Ys47//PdNUlOTmTRhPElJCfj4ePfbBvFehboebi0E7N00VZaQuX4rR+0aMoYmEHKN5xGugRILWE0NHFzxGiuOg8NmprWukmqjhrCoIDzE9ZrAJMbesZDHM3z7vQGkpw9hyJBB7Nm7ny+/3Mhrr7/J8GFDWbhgvnMI3u8FugjeWgjYO6jIPcCe3G6iJ89hbHLgNR/eXgMllqDUhnLbs/9iigDW1kp2Lvk3r+fE8Myfn2SEOFcgkSFTyDF3NFJTWUltcyc2mQoPn2DCgvwwiGsEgp2u5mpKymtp6bSh9vTDS9FNp9qP6EAv3BR9ryNIpVLGjhlFxvB0du3aQ1ZOLq2tbS4lvrXU7epIq/RjyNyHGXIdHchcAyUWrRwlKN1OfScorGrcFQqkMiVKrQaN+ylsHaYG8vduYOXGQ9TbZMgcNmwesUyaOZvpGeHIW46z44s1bDpcRadNjt7bE0ljIcej7+NvD08i2vvMd0jfdSWuH0+ePNH513cqV4wLgYGDgM1mu+Y9f5/o2I3NVFe3ok6cyw/uHkdAw05e+89Stu8LITHZD9nONSzf3cSgux5j/phQzIc/4S8v1VCit2K9fLPTPvlxRbgQOC8CDjNtdWUUFJZh0QURFxeFrLmY4yerkfhGERcbjfdl7ZNpo3DDAYrDhzEz3nDeos8X2NbWdlmmmuejdcVhUl0wQyZOY85wXzpLDpNztJjm9kbM5g7MnbWcOFKOxSueQYmRBBgMhI8cz5gwHzyuyVjiisW7AQiYKc9cx6p95Vy601Y7xvpiDu7bS05ZK6e3Xt8AMl17FhydDeRvWc5//vsRmw4XU19Xxv4vPub1d5azs6CKNsvl8lTFul/+hp+uLb8kAnX1DTdQT2xup/J4FvsLm7HK5EibiqhoakcRI7pC7KLNZEHr7o72jOGGyofgICXqK9nDdUlwDfTEneQs+Qu/Nv+QMSPDuLR1ABuNRftYvngXbpO/T1y44cZpOFehWgSHjY7qAnJyi6kzCWg8g4hLTCbKYKEsazufb86lzhHKKC85NUe2sW7XCdrUCQQF+KI2N1CUVcjxikaMDiVeIfEMSgjDR6dAIlhoKSsg+1gZzZ12FL6xDE+PJ0DbwdGVOym026FwO8t365kzJpxv6tBFC7LmpuYbpS7MNB7fz+oVG6mKmsGjc0cQKxRhNtaf8qigdEPrrsLUZaTTYkFAicTRTVe7A/s3fwpfhWoe+CTt9QVsymklOEROeX4RLXYlhpBEhqUn4q8RsJnaqCzIJfdELRaNDmlrHV02OLN6YjM2cPJoHsdKG+iSeBCelEpqTCDazlJ2Zh6jOyCNkQnB6KWNZG/Zz0mPJKYPi0Cn7HsC8oZAVZxArTzEZ4tWkNOhx1Mnxdp1gENHqpg1exiqtiYaO7qxmNpoqaukRtZCS6eZblszzY1l5O3OJi+rgGapO0qhjYZdudTPvYeZoyJxlGzlsxU7OdqpQCczU1W7m6PND/PkbC+ay2ppE7dMttZQUmfkYr4Qu7vNtHcYbxQlttDZ1kKLyY2wlEGkx3jTnLWPpoYWEHd2KH1JSAlD/uUJDhdWkOgfjlCcyf6iZtrPuIm6IVrAAGFCELCVbeelf+0lYUQaYRo7XW21lG05RKnwDN8erqbiwEY++SKLdtFiSeOgtfooJ5rdce7j6ajm0LZ1rN1bglXhjszYyP7DJbTecwfj/Ds4vnM5mzsrUHx/PrEtq3n39X3I7g1i0tBztzveeHiJu4sKNr3P0hxfHv/d95gVIaM8cxXvvLecT70T+MnUKczIK+HTxnRmLHiApKZddJ2o54hhKtMyQsh6ZwNFwmAefPQehriXsnnlVhq7ujB1VJG9YhnbalK4/4l7GR/u4MjHL/GrJZsYPfJJxj47n6zFGzky4n7+b15PRxV9Y9Rt7sZs7r5RlFiNd1gsg+OPkb37U96s8kdlb0HqZkBeU8nJk21MypjG7MrP2btrJW8XaBE6TnC02Yi1bxldMRdAQHAYqWsoxV/7BD99Yiiahmw+evFPbF17mFnRARzYuoEjson833fvIMZRwuaPqzlUJKJto6loP19uzaYjaiaP3zMG35a9fPDyavbtjSN+wVjmzhnPsZd3sv4LOZlF62mKvpsfTk5Er7rRJzAEbJYasrcUYhnyIFMSvVAjEJqYQUbUFpZkHqZq3AVOFJEq0WjVmPKPsHmdlpakEEJGziDNzx/Pjj3sOWYjbPp40mMC8NBKGXnbWMJXrCS/2sKoy3DdLs5Mi0fgXHNUpWo9kaNm8UCkF2FfDfoVeEYMYvpdUnxyT1JvdSc4ehDDho+gttyIXgdy7wQmzpViOHKU0gYT0vA0kg6V4tCqbs4tghdQwP6KksvlDBqbQYheidkeTLifDVtJHdUtdgqPd+M5azApAVqUQhTJgwYTn3MAhHYqC4toMPuSMXwo8QEG5H5DGR6/mY8aaqhvsxMzZCZ3jD/OKxtWs9cWxWPPjyXRW4P88vYf9Je4F0FHwOFoo6lKinSSl3MQKG5DUig0GDw8sZW0YLzQrKA2mJFTZuBwy+FYw1F2r89CojIQM242ExQ1VHebMB9ax6Km/ajFrwpTKe2mUkqrjDgGXcYo5XSW66DEHoQPn0b4OZBKlB4EJY1x/vWKGiY+OWjM28iGbBOhwydx3ywD5pPr+LvSixTR2FxzM23T7yX9VX0QHXq4u5/ZzXSmKDs2iwljuxypVoszViJH6aZCI7onsnTQ0txKc0kZu1ctom6XOEVmpe5oGcdVIbQYu7CH+xERbkBiaqfVPYKoUB1KxQ2vwc7NvFKpAZ9QB46aRlqJx4CA1Wqipa0Zhc4LnRr6cjtmN3ZgkviQMnUeI5Sd1J08ys6VK1j3pSdBGaJttRSlxh2dhwduouZ5JDPjkQSCo92QS3vvPT5TGxf6FZ1gyGTSa98TX4ipvuMkKJUSOsoOsPJILlv0aiTWDiyDp3L7sHAMp/YR9p3dFXMJCIgb4D3w9rNQ0tBCB+HoBBu2bjPmTnAT/ZNJpMjVWjz9AggOODWzGOAXRIo+hjhfDY6mfHbsOY7KJxj/2ly251SR5qfD09n9XAIr1zypBLkykPSpyXy2ai0b8uKZGyWnLG8Pe4sdxMwYTLDSyvE++JJ0VrN/y3pOuA/lnjsmMni4irrdmzjQKqAMiSMtMIsCfTgZU6eS7A91mWtYtl/LiCA3pFKxbPFr5eIX8MQttqIB0zXvifuQ/xuCJXhEjmLufB8KT9bQ0m1H7uFNeGwi8UF6VDfDNt9vQODaRSvQeYeRmupNXvY29pyMYIy2mvwjeRxrhtEKL4KjwwjM68IQlMSEGanou4rYvn4nrUo1WrWFY2tWs7HYk1F3T0OXs4RPP11PZmKI00ez8gavK6lCS9zkh1lYu5w9773CYY0Eu9WGIeN+bp8cidbRlwqDVB9ETIQv+bs28/Y/MnFXObB0hzNpyggSEkOJuLeZTzZmsfS1XBQKAYvNij5qDjqnybAf8eP8UexdxO+XyPnR/WmcNmbss+o1Gg06rXagKDGg0BEUP5Sg+D5lckX0CwISVIYw0qfcTnnLGj575a9sVmtwWGUExXihX3P0xgAAAjRJREFU1+gJGT6J6S0Wth5cxj8OfYbEIQFdMOMTPRDK97Py/7d3dq1NQ2Ec/yVt06bvL0nTplnpujbtZNM5U+iUOacMX6DCBrKL4lC8EO+FXXjjxcALv4h45Sfwayg4QXvhhUwUdC+iWAkS6kUFq7vY0nMg5O3khP/v4c9JyMl5nm+jnr7B0uIi1uwe25tPefLsJPW7S1SSytEZYTSMlxRANefo3IxTfdFj56BPJGVQrdtU8iHYL9G63sU4yFFRIaTbXFrvMq8UMTMGkQsdUtZr3r7/zFdJIW1UaNQstISC3L5CV6vyqveB3W99FK3EiWYTMxZEJkvrzn22Xn6ib2T/ypju47Sb4vWY9MTDaItjoxGI42w85PEPm4QkEax1eLTlUJ341UooruOsPyC3O0khqBJtLLC2oTPb22GfOKlMkmgE1IxFKqfSvrxK0X7Du497fJfjaBMVamWdyJc+V2/fI2zVmcpGUXPL3NrM0wuWyIYD/zRzxWg6/7+2JAdIFBu0i0N6DDVNecah7N0mlMeez3t7kCrQOFNgyJUQSmJNO1jTg+qDLZl0bYFr7uCmEYqua8LEI/A65lUVzLllTE9Fzmbl4uAju6zEMGfOD84rMYypUxh/yKEdzJo03cVrz1uHJ2md/T35d5pq+xzuHHCiHD4B97/4I/6GcviiRYuCgJ8IuAkBhIn9FFGhZSwJCBOPZdiFaD8RECb2UzSFlrEkIEw8lmEXov1EQJjYT9EUWsaSwE8SM6eoCVoZygAAAABJRU5ErkJggg==;" vertex="1" parent="1">
                    <mxGeometry x="190" y="210" width="225.94" height="120" as="geometry"/>
                </mxCell>
                <mxCell id="3" value="" style="rounded=0;whiteSpace=wrap;html=1;fillColor=#FFFFFF;strokeColor=none;" vertex="1" parent="1">
                    <mxGeometry x="387" y="189" width="38" height="60" as="geometry"/>
                </mxCell>
                <mxCell id="4" value="" style="rounded=0;whiteSpace=wrap;html=1;fillColor=#FFFFFF;strokeColor=none;" vertex="1" parent="1">
                    <mxGeometry x="411" y="285" width="38" height="60" as="geometry"/>
                </mxCell>
                <mxCell id="5" value="" style="rounded=0;whiteSpace=wrap;html=1;fillColor=#FFFFFF;strokeColor=none;" vertex="1" parent="1">
                    <mxGeometry x="347" y="294" width="9" height="60" as="geometry"/>
                </mxCell>
                <mxCell id="6" value="" style="rounded=0;whiteSpace=wrap;html=1;fillColor=#FFFFFF;strokeColor=none;" vertex="1" parent="1">
                    <mxGeometry x="294" y="294" width="9" height="60" as="geometry"/>
                </mxCell>
                <mxCell id="7" value="" style="rounded=0;whiteSpace=wrap;html=1;fillColor=#FFFFFF;strokeColor=none;" vertex="1" parent="1">
                    <mxGeometry x="236" y="293" width="13" height="60" as="geometry"/>
                </mxCell>
                <mxCell id="8" value="&lt;font color=&quot;#000000&quot; style=&quot;font-size: 14px&quot;&gt;Word offset&lt;/font&gt;" style="text;html=1;align=center;verticalAlign=middle;resizable=0;points=[];autosize=1;" vertex="1" parent="1">
                    <mxGeometry x="338" y="335" width="81" height="19" as="geometry"/>
                </mxCell>
                <mxCell id="9" value="" style="endArrow=classic;html=1;strokeColor=#000000;" edge="1" parent="1">
                    <mxGeometry width="50" height="50" relative="1" as="geometry">
                        <mxPoint x="351" y="330.5" as="sourcePoint"/>
                        <mxPoint x="351" y="299.5" as="targetPoint"/>
                    </mxGeometry>
                </mxCell>
            </root>
        </mxGraphModel>
    </diagram>
</mxfile>